<svg width="114" height="40" viewBox="0 0 114 40" fill="none" xmlns="http://www.w3.org/2000/svg">
<path fill-rule="evenodd" clip-rule="evenodd" d="M37.7162 14.983C40.3358 14.983 41.8432 16.3005 41.8432 18.584C41.8432 20.9993 40.3358 22.4046 37.7162 22.4046H35.8869V25.2444H33.2087V14.983H37.7162ZM37.5845 20.2674C38.6675 20.2674 39.2968 19.7112 39.2968 18.6718C39.2968 17.6618 38.6675 17.1202 37.5845 17.1202H35.8869V20.2674H37.5845ZM59.6683 25.2444H56.6389L55.1461 22.4046H53.1558V25.2444H50.4777V14.983H55.0876C57.8097 14.983 59.3609 16.3005 59.3609 18.584C59.3609 20.1357 58.717 21.2774 57.5316 21.8922L59.6683 25.2444ZM53.1558 17.1202V20.2674H55.1022C56.1852 20.2674 56.8145 19.7112 56.8145 18.6718C56.8145 17.6618 56.1852 17.1202 55.1022 17.1202H53.1558ZM68.3905 16.3508L71.0687 15.0056V25.2444H68.3905V16.3508ZM80.3763 14.983H83.3033L86.0253 20.97L88.7474 14.983H91.6743V25.2444H89.3035L89.2889 18.745L86.9034 24.2197H85.1473L82.7618 18.745V25.2444H80.3763V14.983ZM100.982 14.983H109.075L108.005 17.1202H103.66V19.0378H107.05L105.987 21.1603L103.66 21.175V23.1072H108.159L109.221 25.2444H100.982V14.983Z" fill="black"/>
<path fill-rule="evenodd" clip-rule="evenodd" d="M13.2503 26.8259V35.9126L4.16357 31.3692L13.2503 26.8259Z" fill="#3F4EC4"/>
<path fill-rule="evenodd" clip-rule="evenodd" d="M4.16357 4.08736L22.3371 13.1935V22.2609L4.16357 13.1741V4.08736Z" fill="#3F4EC4"/>
<path fill-rule="evenodd" clip-rule="evenodd" d="M4.16357 31.3692L22.3371 22.2631V13.1957L4.16357 22.2825V31.3692Z" fill="#586AF5"/>
</svg>
